<svg id="visual" viewBox="0 0 960 540" width="960" height="540" xmlns="http://www.w3.org/2000/svg" xmlns:xlink="http://www.w3.org/1999/xlink" version="1.1"><rect x="0" y="0" width="960" height="540" fill="#bde1ff"></rect><defs><linearGradient id="grad1_0" x1="43.8%" y1="0%" x2="100%" y2="100%"><stop offset="14.444444444444446%" stop-color="#008cff" stop-opacity="1"></stop><stop offset="85.55555555555554%" stop-color="#008cff" stop-opacity="1"></stop></linearGradient></defs><defs><linearGradient id="grad1_1" x1="43.8%" y1="0%" x2="100%" y2="100%"><stop offset="14.444444444444446%" stop-color="#008cff" stop-opacity="1"></stop><stop offset="85.55555555555554%" stop-color="#3c9eff" stop-opacity="1"></stop></linearGradient></defs><defs><linearGradient id="grad1_2" x1="43.8%" y1="0%" x2="100%" y2="100%"><stop offset="14.444444444444446%" stop-color="#5fb0ff" stop-opacity="1"></stop><stop offset="85.55555555555554%" stop-color="#3c9eff" stop-opacity="1"></stop></linearGradient></defs><defs><linearGradient id="grad1_3" x1="43.8%" y1="0%" x2="100%" y2="100%"><stop offset="14.444444444444446%" stop-color="#5fb0ff" stop-opacity="1"></stop><stop offset="85.55555555555554%" stop-color="#7fc1ff" stop-opacity="1"></stop></linearGradient></defs><defs><linearGradient id="grad1_4" x1="43.8%" y1="0%" x2="100%" y2="100%"><stop offset="14.444444444444446%" stop-color="#9ed1ff" stop-opacity="1"></stop><stop offset="85.55555555555554%" stop-color="#7fc1ff" stop-opacity="1"></stop></linearGradient></defs><defs><linearGradient id="grad1_5" x1="43.8%" y1="0%" x2="100%" y2="100%"><stop offset="14.444444444444446%" stop-color="#9ed1ff" stop-opacity="1"></stop><stop offset="85.55555555555554%" stop-color="#bde1ff" stop-opacity="1"></stop></linearGradient></defs><defs><linearGradient id="grad2_0" x1="0%" y1="0%" x2="56.3%" y2="100%"><stop offset="14.444444444444446%" stop-color="#008cff" stop-opacity="1"></stop><stop offset="85.55555555555554%" stop-color="#008cff" stop-opacity="1"></stop></linearGradient></defs><defs><linearGradient id="grad2_1" x1="0%" y1="0%" x2="56.3%" y2="100%"><stop offset="14.444444444444446%" stop-color="#3c9eff" stop-opacity="1"></stop><stop offset="85.55555555555554%" stop-color="#008cff" stop-opacity="1"></stop></linearGradient></defs><defs><linearGradient id="grad2_2" x1="0%" y1="0%" x2="56.3%" y2="100%"><stop offset="14.444444444444446%" stop-color="#3c9eff" stop-opacity="1"></stop><stop offset="85.55555555555554%" stop-color="#5fb0ff" stop-opacity="1"></stop></linearGradient></defs><defs><linearGradient id="grad2_3" x1="0%" y1="0%" x2="56.3%" y2="100%"><stop offset="14.444444444444446%" stop-color="#7fc1ff" stop-opacity="1"></stop><stop offset="85.55555555555554%" stop-color="#5fb0ff" stop-opacity="1"></stop></linearGradient></defs><defs><linearGradient id="grad2_4" x1="0%" y1="0%" x2="56.3%" y2="100%"><stop offset="14.444444444444446%" stop-color="#7fc1ff" stop-opacity="1"></stop><stop offset="85.55555555555554%" stop-color="#9ed1ff" stop-opacity="1"></stop></linearGradient></defs><defs><linearGradient id="grad2_5" x1="0%" y1="0%" x2="56.3%" y2="100%"><stop offset="14.444444444444446%" stop-color="#bde1ff" stop-opacity="1"></stop><stop offset="85.55555555555554%" stop-color="#9ed1ff" stop-opacity="1"></stop></linearGradient></defs><g transform="translate(960, 0)"><path d="M0 459C-41.6 428.8 -83.3 398.7 -123.9 381.4C-164.6 364.1 -204.2 359.7 -251.6 346.3C-298.9 332.8 -354 310.4 -371.3 269.8C-388.7 229.2 -368.3 170.4 -376.6 122.4C-384.9 74.4 -422 37.2 -459 0L0 0Z" fill="#add9ff"></path><path d="M0 382.5C-34.7 357.4 -69.4 332.2 -103.3 317.8C-137.1 303.4 -170.2 299.7 -209.6 288.5C-249.1 277.4 -295 258.7 -309.4 224.8C-323.9 191 -306.9 142 -313.8 102C-320.8 62 -351.6 31 -382.5 0L0 0Z" fill="#8ec9ff"></path><path d="M0 306C-27.8 285.9 -55.5 265.8 -82.6 254.2C-109.7 242.7 -136.1 239.8 -167.7 230.8C-199.3 221.9 -236 206.9 -247.6 179.9C-259.1 152.8 -245.5 113.6 -251.1 81.6C-256.6 49.6 -281.3 24.8 -306 0L0 0Z" fill="#6fb8ff"></path><path d="M0 229.5C-20.8 214.4 -41.6 199.3 -62 190.7C-82.3 182 -102.1 179.8 -125.8 173.1C-149.5 166.4 -177 155.2 -185.7 134.9C-194.3 114.6 -184.1 85.2 -188.3 61.2C-192.5 37.2 -211 18.6 -229.5 0L0 0Z" fill="#4ea7ff"></path><path d="M0 153C-13.9 142.9 -27.8 132.9 -41.3 127.1C-54.9 121.4 -68.1 119.9 -83.9 115.4C-99.6 110.9 -118 103.5 -123.8 89.9C-129.6 76.4 -122.8 56.8 -125.5 40.8C-128.3 24.8 -140.7 12.4 -153 0L0 0Z" fill="#2795ff"></path><path d="M0 76.5C-6.9 71.5 -13.9 66.4 -20.7 63.6C-27.4 60.7 -34 59.9 -41.9 57.7C-49.8 55.5 -59 51.7 -61.9 45C-64.8 38.2 -61.4 28.4 -62.8 20.4C-64.2 12.4 -70.3 6.2 -76.5 0L0 0Z" fill="#008cff"></path></g><g transform="translate(0, 540)"><path d="M0 -459C35.1 -410.9 70.2 -362.8 113.4 -349C156.6 -335.2 207.8 -355.7 253.3 -348.7C298.9 -341.7 338.7 -307.2 369.7 -268.6C400.8 -230 423.1 -187.3 436.5 -141.8C450 -96.4 454.5 -48.2 459 0L0 0Z" fill="#add9ff"></path><path d="M0 -382.5C29.3 -342.4 58.5 -302.4 94.5 -290.9C130.5 -279.4 173.2 -296.4 211.1 -290.6C249 -284.7 282.2 -256 308.1 -223.8C334 -191.7 352.6 -156.1 363.8 -118.2C375 -80.3 378.7 -40.2 382.5 0L0 0Z" fill="#8ec9ff"></path><path d="M0 -306C23.4 -273.9 46.8 -241.9 75.6 -232.7C104.4 -223.5 138.5 -237.1 168.9 -232.5C199.2 -227.8 225.8 -204.8 246.5 -179.1C267.2 -153.3 282.1 -124.9 291 -94.6C300 -64.3 303 -32.1 306 0L0 0Z" fill="#6fb8ff"></path><path d="M0 -229.5C17.6 -205.5 35.1 -181.4 56.7 -174.5C78.3 -167.6 103.9 -177.8 126.7 -174.3C149.4 -170.8 169.3 -153.6 184.9 -134.3C200.4 -115 211.6 -93.6 218.3 -70.9C225 -48.2 227.2 -24.1 229.5 0L0 0Z" fill="#4ea7ff"></path><path d="M0 -153C11.7 -137 23.4 -120.9 37.8 -116.3C52.2 -111.7 69.3 -118.6 84.4 -116.2C99.6 -113.9 112.9 -102.4 123.2 -89.5C133.6 -76.7 141 -62.4 145.5 -47.3C150 -32.1 151.5 -16.1 153 0L0 0Z" fill="#2795ff"></path><path d="M0 -76.5C5.9 -68.5 11.7 -60.5 18.9 -58.2C26.1 -55.9 34.6 -59.3 42.2 -58.1C49.8 -56.9 56.4 -51.2 61.6 -44.8C66.8 -38.3 70.5 -31.2 72.8 -23.6C75 -16.1 75.7 -8 76.5 0L0 0Z" fill="#008cff"></path></g></svg>