<svg id="visual" viewBox="0 0 900 600" width="900" height="600" xmlns="http://www.w3.org/2000/svg" xmlns:xlink="http://www.w3.org/1999/xlink" version="1.1"><rect x="0" y="0" width="900" height="600" fill="#bde1ff"></rect><path d="M0 472L75 441.3C150 410.7 300 349.3 450 342C600 334.7 750 381.3 825 404.7L900 428L900 601L825 601C750 601 600 601 450 601C300 601 150 601 75 601L0 601Z" fill="#88c9ff"></path><path d="M0 467L75 467.8C150 468.7 300 470.3 450 450.2C600 430 750 388 825 367L900 346L900 601L825 601C750 601 600 601 450 601C300 601 150 601 75 601L0 601Z" fill="#50acff"></path><path d="M0 424L75 441.5C150 459 300 494 450 507.8C600 521.7 750 514.3 825 510.7L900 507L900 601L825 601C750 601 600 601 450 601C300 601 150 601 75 601L0 601Z" fill="#008cff"></path></svg>