<svg id="visual" viewBox="0 0 540 960" width="540" height="960" xmlns="http://www.w3.org/2000/svg" xmlns:xlink="http://www.w3.org/1999/xlink" version="1.1"><rect x="0" y="0" width="540" height="960" fill="#bde1ff"></rect><defs><linearGradient id="grad1_0" x1="0%" y1="0%" x2="100%" y2="100%"><stop offset="30%" stop-color="#008cff" stop-opacity="1"></stop><stop offset="70%" stop-color="#008cff" stop-opacity="1"></stop></linearGradient></defs><defs><linearGradient id="grad1_1" x1="0%" y1="0%" x2="100%" y2="100%"><stop offset="30%" stop-color="#008cff" stop-opacity="1"></stop><stop offset="70%" stop-color="#46a3ff" stop-opacity="1"></stop></linearGradient></defs><defs><linearGradient id="grad1_2" x1="0%" y1="0%" x2="100%" y2="100%"><stop offset="30%" stop-color="#6fb8ff" stop-opacity="1"></stop><stop offset="70%" stop-color="#46a3ff" stop-opacity="1"></stop></linearGradient></defs><defs><linearGradient id="grad1_3" x1="0%" y1="0%" x2="100%" y2="100%"><stop offset="30%" stop-color="#6fb8ff" stop-opacity="1"></stop><stop offset="70%" stop-color="#96cdff" stop-opacity="1"></stop></linearGradient></defs><defs><linearGradient id="grad1_4" x1="0%" y1="0%" x2="100%" y2="100%"><stop offset="30%" stop-color="#bde1ff" stop-opacity="1"></stop><stop offset="70%" stop-color="#96cdff" stop-opacity="1"></stop></linearGradient></defs><defs><linearGradient id="grad2_0" x1="0%" y1="0%" x2="100%" y2="100%"><stop offset="30%" stop-color="#008cff" stop-opacity="1"></stop><stop offset="70%" stop-color="#008cff" stop-opacity="1"></stop></linearGradient></defs><defs><linearGradient id="grad2_1" x1="0%" y1="0%" x2="100%" y2="100%"><stop offset="30%" stop-color="#46a3ff" stop-opacity="1"></stop><stop offset="70%" stop-color="#008cff" stop-opacity="1"></stop></linearGradient></defs><defs><linearGradient id="grad2_2" x1="0%" y1="0%" x2="100%" y2="100%"><stop offset="30%" stop-color="#46a3ff" stop-opacity="1"></stop><stop offset="70%" stop-color="#6fb8ff" stop-opacity="1"></stop></linearGradient></defs><defs><linearGradient id="grad2_3" x1="0%" y1="0%" x2="100%" y2="100%"><stop offset="30%" stop-color="#96cdff" stop-opacity="1"></stop><stop offset="70%" stop-color="#6fb8ff" stop-opacity="1"></stop></linearGradient></defs><defs><linearGradient id="grad2_4" x1="0%" y1="0%" x2="100%" y2="100%"><stop offset="30%" stop-color="#96cdff" stop-opacity="1"></stop><stop offset="70%" stop-color="#bde1ff" stop-opacity="1"></stop></linearGradient></defs><g transform="translate(540, 0)"><path d="M0 459C-53.3 462 -106.6 465 -141.8 436.5C-177.1 408 -194.2 348.1 -228.1 313.9C-261.9 279.7 -312.3 271.4 -332.5 241.6C-352.7 211.7 -342.5 160.4 -358.5 116.5C-374.6 72.6 -416.8 36.3 -459 0L0 0Z" fill="#a9d7ff"></path><path d="M0 367.2C-42.6 369.6 -85.3 372 -113.5 349.2C-141.7 326.4 -155.4 278.4 -182.4 251.1C-209.5 223.8 -249.9 217.1 -266 193.3C-282.1 169.4 -274 128.3 -286.8 93.2C-299.7 58.1 -333.4 29.1 -367.2 0L0 0Z" fill="#83c3ff"></path><path d="M0 275.4C-32 277.2 -64 279 -85.1 261.9C-106.2 244.8 -116.5 208.8 -136.8 188.3C-157.1 167.8 -187.4 162.9 -199.5 144.9C-211.6 127 -205.5 96.2 -215.1 69.9C-224.7 43.6 -250.1 21.8 -275.4 0L0 0Z" fill="#5badff"></path><path d="M0 183.6C-21.3 184.8 -42.6 186 -56.7 174.6C-70.8 163.2 -77.7 139.2 -91.2 125.6C-104.8 111.9 -124.9 108.6 -133 96.6C-141.1 84.7 -137 64.1 -143.4 46.6C-149.8 29.1 -166.7 14.5 -183.6 0L0 0Z" fill="#2d97ff"></path><path d="M0 91.8C-10.7 92.4 -21.3 93 -28.4 87.3C-35.4 81.6 -38.8 69.6 -45.6 62.8C-52.4 55.9 -62.5 54.3 -66.5 48.3C-70.5 42.3 -68.5 32.1 -71.7 23.3C-74.9 14.5 -83.4 7.3 -91.8 0L0 0Z" fill="#008cff"></path></g><g transform="translate(0, 960)"><path d="M0 -459C37.7 -426.6 75.4 -394.1 125.8 -387.1C176.2 -380 239.3 -398.4 269.8 -371.3C300.3 -344.3 298.3 -271.9 308.2 -223.9C318.2 -176 340 -152.5 367.1 -119.3C394.2 -86 426.6 -43 459 0L0 0Z" fill="#a9d7ff"></path><path d="M0 -367.2C30.2 -341.3 60.3 -315.3 100.6 -309.7C140.9 -304 191.4 -318.7 215.8 -297.1C240.3 -275.4 238.7 -217.5 246.6 -179.2C254.5 -140.8 272 -122 293.7 -95.4C315.4 -68.8 341.3 -34.4 367.2 0L0 0Z" fill="#83c3ff"></path><path d="M0 -275.4C22.6 -255.9 45.2 -236.5 75.5 -232.2C105.7 -228 143.6 -239 161.9 -222.8C180.2 -206.6 179 -163.1 184.9 -134.4C190.9 -105.6 204 -91.5 220.3 -71.6C236.5 -51.6 256 -25.8 275.4 0L0 0Z" fill="#5badff"></path><path d="M0 -183.6C15.1 -170.6 30.2 -157.7 50.3 -154.8C70.5 -152 95.7 -159.3 107.9 -148.5C120.1 -137.7 119.3 -108.8 123.3 -89.6C127.3 -70.4 136 -61 146.8 -47.7C157.7 -34.4 170.6 -17.2 183.6 0L0 0Z" fill="#2d97ff"></path><path d="M0 -91.8C7.5 -85.3 15.1 -78.8 25.2 -77.4C35.2 -76 47.9 -79.7 54 -74.3C60.1 -68.9 59.7 -54.4 61.6 -44.8C63.6 -35.2 68 -30.5 73.4 -23.9C78.8 -17.2 85.3 -8.6 91.8 0L0 0Z" fill="#008cff"></path></g></svg>