<svg xmlns="http://www.w3.org/2000/svg" version="1.1" xmlns:xlink="http://www.w3.org/1999/xlink" xmlns:svgjs="http://svgjs.dev/svgjs" viewBox="0 0 2400 800"><defs><linearGradient x1="50%" y1="0%" x2="50%" y2="100%" id="sssurf-grad"><stop stop-color="#008cffff" stop-opacity="1" offset="0%"></stop><stop stop-color="hsl(270, 73%, 53%)" stop-opacity="1" offset="100%"></stop></linearGradient></defs><g fill="url(#sssurf-grad)" transform="matrix(1,0,0,1,5.82373046875,197.02953720092773)"><path d="M-10,10C75.41666666666666,10.625,231.25,20.5,400,13C568.75,5.5,633.3333333333333,-30.166666666666668,800,-26C966.6666666666667,-21.833333333333332,1033.3333333333333,38.208333333333336,1200,33C1366.6666666666667,27.791666666666664,1433.3333333333333,-48.708333333333336,1600,-51C1766.6666666666667,-53.291666666666664,1833.3333333333333,11.791666666666668,2000,22C2166.6666666666665,32.20833333333333,2264.5833333333335,-80.75,2400,-2C2535.4166666666665,76.75,3254.1666666666665,212.08333333333331,2650,400C2045.8333333333335,587.9166666666667,156.25,795.8333333333334,-500,900" transform="matrix(1,0,0,1,0,51)" opacity="0.05"></path><path d="M-10,10C75.41666666666666,10.625,231.25,20.5,400,13C568.75,5.5,633.3333333333333,-30.166666666666668,800,-26C966.6666666666667,-21.833333333333332,1033.3333333333333,38.208333333333336,1200,33C1366.6666666666667,27.791666666666664,1433.3333333333333,-48.708333333333336,1600,-51C1766.6666666666667,-53.291666666666664,1833.3333333333333,11.791666666666668,2000,22C2166.6666666666665,32.20833333333333,2264.5833333333335,-80.75,2400,-2C2535.4166666666665,76.75,3254.1666666666665,212.08333333333331,2650,400C2045.8333333333335,587.9166666666667,156.25,795.8333333333334,-500,900" transform="matrix(1,0,0,1,0,102)" opacity="0.24"></path><path d="M-10,10C75.41666666666666,10.625,231.25,20.5,400,13C568.75,5.5,633.3333333333333,-30.166666666666668,800,-26C966.6666666666667,-21.833333333333332,1033.3333333333333,38.208333333333336,1200,33C1366.6666666666667,27.791666666666664,1433.3333333333333,-48.708333333333336,1600,-51C1766.6666666666667,-53.291666666666664,1833.3333333333333,11.791666666666668,2000,22C2166.6666666666665,32.20833333333333,2264.5833333333335,-80.75,2400,-2C2535.4166666666665,76.75,3254.1666666666665,212.08333333333331,2650,400C2045.8333333333335,587.9166666666667,156.25,795.8333333333334,-500,900" transform="matrix(1,0,0,1,0,153)" opacity="0.43"></path><path d="M-10,10C75.41666666666666,10.625,231.25,20.5,400,13C568.75,5.5,633.3333333333333,-30.166666666666668,800,-26C966.6666666666667,-21.833333333333332,1033.3333333333333,38.208333333333336,1200,33C1366.6666666666667,27.791666666666664,1433.3333333333333,-48.708333333333336,1600,-51C1766.6666666666667,-53.291666666666664,1833.3333333333333,11.791666666666668,2000,22C2166.6666666666665,32.20833333333333,2264.5833333333335,-80.75,2400,-2C2535.4166666666665,76.75,3254.1666666666665,212.08333333333331,2650,400C2045.8333333333335,587.9166666666667,156.25,795.8333333333334,-500,900" transform="matrix(1,0,0,1,0,204)" opacity="0.62"></path><path d="M-10,10C75.41666666666666,10.625,231.25,20.5,400,13C568.75,5.5,633.3333333333333,-30.166666666666668,800,-26C966.6666666666667,-21.833333333333332,1033.3333333333333,38.208333333333336,1200,33C1366.6666666666667,27.791666666666664,1433.3333333333333,-48.708333333333336,1600,-51C1766.6666666666667,-53.291666666666664,1833.3333333333333,11.791666666666668,2000,22C2166.6666666666665,32.20833333333333,2264.5833333333335,-80.75,2400,-2C2535.4166666666665,76.75,3254.1666666666665,212.08333333333331,2650,400C2045.8333333333335,587.9166666666667,156.25,795.8333333333334,-500,900" transform="matrix(1,0,0,1,0,255)" opacity="0.81"></path><path d="M-10,10C75.41666666666666,10.625,231.25,20.5,400,13C568.75,5.5,633.3333333333333,-30.166666666666668,800,-26C966.6666666666667,-21.833333333333332,1033.3333333333333,38.208333333333336,1200,33C1366.6666666666667,27.791666666666664,1433.3333333333333,-48.708333333333336,1600,-51C1766.6666666666667,-53.291666666666664,1833.3333333333333,11.791666666666668,2000,22C2166.6666666666665,32.20833333333333,2264.5833333333335,-80.75,2400,-2C2535.4166666666665,76.75,3254.1666666666665,212.08333333333331,2650,400C2045.8333333333335,587.9166666666667,156.25,795.8333333333334,-500,900" transform="matrix(1,0,0,1,0,306)" opacity="1.00"></path></g></svg>