<svg xmlns="http://www.w3.org/2000/svg" version="1.1" xmlns:xlink="http://www.w3.org/1999/xlink" xmlns:svgjs="http://svgjs.dev/svgjs" viewBox="0 0 1920 1080" style="overflow: hidden; height: 85vh;" class="overflow-hidden rounded-md drop-shadow-lg transition duration-300"><rect width="1920" height="1080" fill="#0061ff"/><g clip-path="url(&quot;#SvgjsClipPath1770&quot;)"><g transform="matrix(0.8131727983645296,0.8131727983645295,-0.8131727983645295,0.8131727983645296,613.5342476669489,-658.2873490845652)"><path d="M0,-1080C-5.347892053547038,-992.0767674799345,-36.83367718037438,-737.8658023334551,-32.087352321282225,-552.4606048796066C-27.34102746219007,-367.0554074257582,31.373583825650993,-143.1895838521662,28.47794915455293,32.431184723090695C25.58231448345487,208.0519532983476,-51.65657231459259,336.1465855774551,-49.46116034787059,501.26400657193494C-47.26574838114859,666.3814275664148,42.09954205770992,845.9104525628796,41.650420954884936,1023.1357106899696C41.201299852059954,1200.3609688170595,-45.214150139006314,1375.138173782803,-52.15588696482047,1564.6155553344747C-59.09762379063462,1754.0929368861464,-8.692647827470077,2060.7692592224125,0,2160L 1920 2160 L 1920 -1080 Z" fill="url(&quot;#SvgjsLinearGradient1759&quot;)"/><path d="M174.54545454545456,-1080C181.4828589729712,-996.193566834496,214.55868125860607,-727.3658853242766,216.1698811105544,-577.1614010069757C217.78108096250273,-426.9569166896747,199.77084724625638,-326.307537967349,184.21265365714453,-178.7730940961942C168.65446006803268,-31.238650225039407,121.86610325681409,154.93306948133676,122.82071957588332,308.0452622199531C123.77533589495255,461.1574549585694,187.34196253582462,595.8495869807236,189.94035157155994,739.9000623355038C192.53874060729527,883.9505376902839,142.46416100416846,1004.4520308802973,138.4110537902952,1172.3481143486335C134.35794657642194,1340.2441978169697,159.59930816246043,1582.6679155369595,165.62170828832032,1747.2765631455206C171.6441084141802,1911.8852107540818,173.05816350259886,2091.2127605242536,174.54545454545456,2160L 1920 2160 L 1920 -1080 Z" fill="url(&quot;#SvgjsLinearGradient1760&quot;)"/><path d="M349.0909090909091,-1080C344.1595680729323,-985.5946868264181,328.90798384084616,-687.885146463042,319.5028629830482,-513.5681209585083C310.09774212525025,-339.2510954539746,291.5264518727808,-199.3452015844569,292.66018394412146,-34.09784697279784C293.7939160154621,131.14950763886122,314.21552115104873,293.4910740446654,326.30525541109216,477.91600671144613C338.3949896711356,662.3409393782268,363.9953264446983,880.0033615778705,365.19858950438197,1072.451749027886C366.4018525640656,1264.9001364779017,336.2094471714396,1451.348289582854,333.5248337691941,1632.6063314115397C330.84022036694864,1813.8643732402254,346.4965632039566,2072.101055235257,349.0909090909091,2160L 1920 2160 L 1920 -1080 Z" fill="url(&quot;#SvgjsLinearGradient1761&quot;)"/><path d="M523.6363636363636,-1080C516.1933203667702,-1004.8314945596206,488.50979406788446,-759.3654133775468,478.97810401880315,-628.9889673577236C469.44641396972185,-498.6125213379004,467.8917850281559,-414.5537484123151,466.4462233418759,-297.74132388106045C465.00066165559593,-180.92889934980582,468.06245416416925,-66.5294535018754,470.3047339011232,71.88557982980433C472.54701363807715,210.30061316148405,462.62000108365766,390.92086637511727,479.8999017635995,532.7488761090179C497.1798024435413,674.5768858429186,573.025766672659,786.8730810825107,573.984137980774,922.8536382332081C574.942509288889,1058.8341953839056,496.9664332594381,1209.1674372530085,485.65012961228956,1348.6322190132028C474.33382596514105,1488.097000773397,499.75527709387063,1624.4143652965745,506.08631609788296,1759.642328794374C512.4173551018953,1894.8702922921734,520.7113557132835,2093.273721465729,523.6363636363636,2160L 1920 2160 L 1920 -1080 Z" fill="url(&quot;#SvgjsLinearGradient1762&quot;)"/><path d="M698.1818181818182,-1080C694.9015230893187,-1011.4984597761287,683.2230013463725,-823.1646772161947,678.500047626821,-668.9907586567724C673.7770939072695,-514.8168400973501,676.0182044161451,-320.83926128705286,669.8440958645093,-154.95648864346603C663.6699873128736,10.926284000120802,641.8796773570594,177.33414367779363,641.4553963170065,326.30587720474864C641.0311152769535,475.27761073170365,656.882910891896,586.8830098076971,667.2984096241917,738.873912518264C677.7139083564873,890.8648152288308,703.2734814398394,1070.3375113692948,703.94838871078,1238.25129346815C704.6232959817206,1406.165075567005,672.3089483379953,1592.7318206894195,671.347853249835,1746.3566051113944C670.3867581616747,1899.9813895333693,693.7094906931544,2091.0594341852325,698.1818181818182,2160L 1920 2160 L 1920 -1080 Z" fill="url(&quot;#SvgjsLinearGradient1763&quot;)"/><path d="M872.7272727272727,-1080C879.4470799796923,-985.0476331361705,914.3859497781822,-700.0009302595965,913.0461162417897,-510.2857988170229C911.7062827053973,-320.5706673744493,878.4857010119457,-121.16652623241427,864.688271508918,58.29078865544187C850.8908420058902,237.74810354329801,826.9161234349306,396.4526477290136,830.2615392236233,566.4580905101141C833.6069550123161,736.4635332912145,880.7738632297287,894.2027856267657,884.7607662410747,1078.3234453420446C888.7476692524208,1262.4441050573234,856.188539544,1490.902623025461,854.1829572916997,1671.182048801787C852.1773750393994,1851.461474578113,869.6365534880106,2078.5303414669643,872.7272727272727,2160L 1920 2160 L 1920 -1080 Z" fill="url(&quot;#SvgjsLinearGradient1764&quot;)"/><path d="M1047.2727272727273,-1080C1038.8283348425812,-982.6560460801527,992.1718387805358,-722.1926274553757,996.6063726918512,-495.9362764809163C1001.0409066031666,-269.67992550645687,1065.0913666869276,46.84832052431554,1073.8799307406198,277.5381058467567C1082.668494794312,508.22789116919785,1043.3121270760917,674.3456179032344,1049.3377570140044,888.2024354537308C1055.3633869519172,1102.0592530042272,1110.3778819916427,1348.7127503920237,1110.0337103680965,1560.6790111497353C1109.6895387445504,1772.6452719074468,1057.7328911219554,2060.1131685249557,1047.2727272727273,2160L 1920 2160 L 1920 -1080 Z" fill="url(&quot;#SvgjsLinearGradient1765&quot;)"/><path d="M1221.8181818181818,-1080C1226.8179219026056,-989.9899325637772,1251.185115122275,-710.3619969163019,1251.8166223247242,-539.9395953826631C1252.4481295271735,-369.51719384902435,1234.6050352527104,-248.05453416864796,1225.6072250328766,-57.46559079816717C1216.6094148130428,133.12335257231362,1189.6794529343204,421.01263583812124,1197.829761005721,603.5940648402216C1205.9800690771215,786.1754938423219,1263.1480396773138,862.8364990454821,1274.50907346128,1038.0229832144348C1285.8701072452461,1213.2094673833876,1274.777778983368,1467.7168003896768,1265.9959637095183,1654.7129698539377C1257.2141484356684,1841.7091393181986,1229.181145466738,2075.785494975656,1221.8181818181818,2160L 1920 2160 L 1920 -1080 Z" fill="url(&quot;#SvgjsLinearGradient1766&quot;)"/><path d="M1396.3636363636365,-1080C1399.6445476417803,-1007.0497970697238,1422.39923767867,-805.9727147774225,1416.0491040324987,-642.2987824183427C1409.6989703863273,-478.62485005926294,1356.7374625015534,-254.5037113458621,1358.2628344866082,-97.95640584552126C1359.788206471663,58.590899654819566,1416.137389926197,161.02862781918998,1425.2013359428277,296.9850505837022C1434.2652819594582,432.94147334821446,1427.950159898699,566.0425381014234,1412.6465105863913,717.7821307415522C1397.3428612740836,869.5217233816811,1338.7665767894878,1045.1973410100538,1333.3794400689808,1207.4226064244756C1327.9923033484738,1369.6478718388973,1369.8263242142398,1532.3708242988284,1380.3236902633491,1691.1337232280825C1390.8210563124585,1849.8966221573367,1393.6903120135885,2081.8556205380137,1396.3636363636365,2160L 1920 2160 L 1920 -1080 Z" fill="url(&quot;#SvgjsLinearGradient1767&quot;)"/><path d="M1570.909090909091,-1080C1581.3954080757699,-966.9945465104519,1625.7436513473654,-619.6355193821923,1633.8269939091645,-401.9672790627113C1641.9103364709636,-184.2990387432303,1639.3698528874768,22.658275272977846,1619.409146279885,226.009441916886C1599.448439672293,429.36060856079416,1516.7692736132115,610.3274165031936,1514.0627542636134,818.1397208007377C1511.3562349140154,1025.9520250982816,1593.6956407413838,1249.2398878356066,1603.1700301822968,1472.8832677021503C1612.6444196232098,1696.526647568694,1576.285914121292,2045.480544617025,1570.909090909091,2160L 1920 2160 L 1920 -1080 Z" fill="url(&quot;#SvgjsLinearGradient1768&quot;)"/><path d="M1745.4545454545455,-1080C1735.8092294752591,-975.7055357608879,1689.4149218919588,-667.1879249196996,1687.5826495788267,-454.2332145653271C1685.7503772656946,-241.27850421095457,1731.998736423387,-22.874815877728537,1734.4609115757528,197.72826212623514C1736.9230867281185,418.3313401301988,1695.7827357638616,649.3948910681241,1702.3557004930205,869.385253458455C1708.9286652221795,1089.3756158487859,1766.7155591237859,1302.5679787112963,1773.8986999507067,1517.6704364682205C1781.0818407776276,1732.7728942251447,1750.1952378705723,2052.9450727447033,1745.4545454545455,2160L 1920 2160 L 1920 -1080 Z" fill="url(&quot;#SvgjsLinearGradient1769&quot;)"/></g></g><defs><linearGradient x1="0.1" y1="0" x2="0" y2="1" id="SvgjsLinearGradient1759"><stop stop-color="#0061ff" offset="0"/><stop stop-color="#008cff" offset="0"/></linearGradient><linearGradient x1="0.1" y1="0" x2="0" y2="1" id="SvgjsLinearGradient1760"><stop stop-color="#1f74ff" offset="0"/><stop stop-color="#1f99ff" offset="0.09090909090909091"/></linearGradient><linearGradient x1="0.1" y1="0" x2="0" y2="1" id="SvgjsLinearGradient1761"><stop stop-color="#3d87ff" offset="0"/><stop stop-color="#3da7ff" offset="0.18181818181818182"/></linearGradient><linearGradient x1="0.1" y1="0" x2="0" y2="1" id="SvgjsLinearGradient1762"><stop stop-color="#5c9aff" offset="0"/><stop stop-color="#5cb5ff" offset="0.2727272727272727"/></linearGradient><linearGradient x1="0.1" y1="0" x2="0" y2="1" id="SvgjsLinearGradient1763"><stop stop-color="#7badff" offset="0"/><stop stop-color="#7bc3ff" offset="0.36363636363636365"/></linearGradient><linearGradient x1="0.1" y1="0" x2="0" y2="1" id="SvgjsLinearGradient1764"><stop stop-color="#9ac0ff" offset="0"/><stop stop-color="#9ad1ff" offset="0.45454545454545453"/></linearGradient><linearGradient x1="0.1" y1="0" x2="0" y2="1" id="SvgjsLinearGradient1765"><stop stop-color="#b8d3ff" offset="0"/><stop stop-color="#b8dfff" offset="0.5454545454545454"/></linearGradient><linearGradient x1="0.1" y1="0" x2="0" y2="1" id="SvgjsLinearGradient1766"><stop stop-color="#d7e6ff" offset="0"/><stop stop-color="#d7edff" offset="0.6363636363636364"/></linearGradient><linearGradient x1="0.1" y1="0" x2="0" y2="1" id="SvgjsLinearGradient1767"><stop stop-color="#f6f9ff" offset="0"/><stop stop-color="#f6faff" offset="0.7272727272727273"/></linearGradient><linearGradient x1="0.1" y1="0" x2="0" y2="1" id="SvgjsLinearGradient1768"><stop stop-color="#ffffff" offset="0"/><stop stop-color="#ffffff" offset="0.8181818181818182"/></linearGradient><linearGradient x1="0.1" y1="0" x2="0" y2="1" id="SvgjsLinearGradient1769"><stop stop-color="#ffffff" offset="0"/><stop stop-color="#ffffff" offset="0.9090909090909091"/></linearGradient><clipPath id="SvgjsClipPath1770"><rect width="1920" height="1080"/></clipPath></defs></svg>