<svg xmlns="http://www.w3.org/2000/svg" version="1.1" xmlns:xlink="http://www.w3.org/1999/xlink" viewBox="0 0 1920 1080" style="overflow: hidden; height: 85vh;" class="overflow-hidden rounded-md drop-shadow-lg transition duration-300"><rect width="1920" height="1080" fill="#0061ff"/><g clip-path="url(&quot;#SvgjsClipPath1195&quot;)"><g transform="matrix(1.15,0,0,1.15,-140.60043125152583,-81)"><path d="M0,-1080C5.727950901893678,-979.7128403284628,41.92229688244462,-699.1291276811231,34.36770541136207,-478.27704197077696C26.81311394027951,-257.4249562604308,-45.32961490752239,25.360534677615817,-45.32754882649533,245.1125142620771C-45.32548274546827,464.8644938465384,18.745184462373587,619.7682760932869,34.38010189752441,840.2348355359908C50.01501933267524,1060.7013949786947,54.21197276733036,1347.9510101742992,48.48195578440962,1567.9118709183008C42.75193880148888,1787.8727316623024,8.08032596406827,2061.31864515305,0,2160L 1920 2160 L 1920 -1080 Z" fill="url(&quot;#SvgjsLinearGradient1190&quot;)"/><path d="M384,-1080C392.75769323883094,-941.846859447522,445.1668072975316,-519.5738676003282,436.54615943298563,-251.08115668513165C427.9255115684397,17.41155423006495,344.54051949903004,255.46461503666416,332.2761128127244,530.9562654911797C320.0117061264188,806.4479159456953,354.33907145060607,1130.3614569571582,362.95971931515203,1401.8687460419617C371.580367179698,1673.3760351267651,380.4932865525253,2033.6447910069937,384,2160L 1920 2160 L 1920 -1080 Z" fill="url(&quot;#SvgjsLinearGradient1191&quot;)"/><path d="M768,-1080C768.2973695013484,-942.0040939010546,769.6459071936624,-514.4255084993509,769.7842170080905,-252.02456340632747C769.9225268225186,10.376381686695964,771.7333487570436,217.41640895861616,768.8298588865689,494.40567055814074C765.9263690160942,771.3949321576654,752.5015875996703,1132.3119512838437,752.3632777852422,1409.9110061908202C752.2249679708141,1687.5100610977968,765.3938796308737,2034.98516769847,768,2160L 1920 2160 L 1920 -1080 Z" fill="url(&quot;#SvgjsLinearGradient1192&quot;)"/><path d="M1152,-1080C1149.1704806642508,-941.4275820591689,1133.3867262396998,-516.3203481114585,1135.0228839855051,-248.56549235501325C1136.6590417313105,19.18936340143199,1160.5445570388733,253.17182465235982,1161.8169464748319,526.5291345386714C1163.0893359107904,799.886444424983,1144.2933783470623,1119.3332227193016,1142.657220601257,1391.5783669628563C1141.0210628554516,1663.823511206411,1150.4428701002096,2031.9297278271426,1152,2160L 1920 2160 L 1920 -1080 Z" fill="url(&quot;#SvgjsLinearGradient1193&quot;)"/><path d="M1536,-1080C1544.3101591348382,-1003.327138656609,1584.3324131278662,-763.7746410828115,1585.8609548090292,-619.962831939654C1587.3894964901922,-476.1510227964966,1543.057045955744,-380.1504271026703,1545.1712500869778,-217.12914514105523C1547.2854542182117,-54.107863179440216,1599.555768351507,193.4777270188799,1598.546179596432,358.164859830036C1597.536590841357,522.851992641192,1551.8382679583842,628.390643147318,1539.1137175565282,770.9936517258814C1526.3891671546721,913.5966603044448,1528.9070619130866,1065.2683832042005,1522.1988771852964,1213.7829113014166C1515.4906924575062,1362.2974393986326,1496.5644220540032,1504.3779721927472,1498.8646091897872,1662.0808203091779C1501.1647963255712,1819.7836684256085,1529.8107681982979,2077.0134700515296,1536,2160L 1920 2160 L 1920 -1080 Z" fill="url(&quot;#SvgjsLinearGradient1194&quot;)"/></g></g><defs><linearGradient x1="0.1" y1="0" x2="0" y2="1" id="SvgjsLinearGradient1190"><stop stop-color="#0061ff" offset="0"/><stop stop-color="#008cff" offset="0"/></linearGradient><linearGradient x1="0.1" y1="0" x2="0" y2="1" id="SvgjsLinearGradient1191"><stop stop-color="#448bff" offset="0"/><stop stop-color="#44aaff" offset="0.2"/></linearGradient><linearGradient x1="0.1" y1="0" x2="0" y2="1" id="SvgjsLinearGradient1192"><stop stop-color="#87b5ff" offset="0"/><stop stop-color="#87c9ff" offset="0.4"/></linearGradient><linearGradient x1="0.1" y1="0" x2="0" y2="1" id="SvgjsLinearGradient1193"><stop stop-color="#cbdfff" offset="0"/><stop stop-color="#cbe8ff" offset="0.6"/></linearGradient><linearGradient x1="0.1" y1="0" x2="0" y2="1" id="SvgjsLinearGradient1194"><stop stop-color="#ffffff" offset="0"/><stop stop-color="#ffffff" offset="0.8"/></linearGradient><clipPath id="SvgjsClipPath1195"><rect width="1920" height="1080"/></clipPath></defs></svg>